# Blender 4.2.0
# www.blender.org
mtllib botao arena prot CAMPO LONGO GOLEIRA E.mtl
o CAMPO_LONGO_GOLEIRA.001
v -2.000027 0.000000 -0.387607
v -2.000027 0.000000 0.387695
v -2.428324 0.000000 -0.387607
v -2.428324 0.000000 0.387695
v -2.163767 0.000000 0.466245
v -2.163767 0.000000 -0.466157
v -2.000027 0.000000 -0.466780
v -2.000027 0.000000 0.466166
v -2.163839 0.000000 0.387695
v -2.163557 0.000000 -0.387607
v -2.428324 0.180815 0.387695
v -2.428324 0.180815 -0.387607
v -2.112685 0.114097 0.387695
v -2.272321 0.180815 0.387695
v -2.170952 0.087364 0.387695
v -2.158185 0.147456 0.387695
v -2.216616 0.171877 0.387695
v -2.272321 0.180815 -0.387607
v -2.112685 0.114097 -0.387607
v -2.170807 0.087376 -0.387607
v -2.216616 0.171877 -0.387607
v -2.158185 0.147456 -0.387607
v -2.272321 0.180815 0.466245
v -2.112685 0.114097 0.466216
v -2.170915 0.087367 0.466245
v -2.216616 0.171877 0.466241
v -2.158185 0.147456 0.466230
v -2.112685 0.114097 -0.466387
v -2.272321 0.180815 -0.466157
v -2.170915 0.087367 -0.466157
v -2.158185 0.147456 -0.466272
v -2.216616 0.171877 -0.466188
v -2.495793 0.000000 0.384109
v -2.413879 0.000000 0.466245
v -2.442337 0.000000 0.404010
v -2.484819 0.000000 0.425177
v -2.454836 0.000000 0.455241
v -2.413879 0.000000 -0.466157
v -2.495793 0.000000 -0.384021
v -2.442337 0.000000 -0.403922
v -2.454836 0.000000 -0.455153
v -2.484819 0.000000 -0.425089
v -2.413879 0.180815 0.466245
v -2.495793 0.180815 0.384109
v -2.442337 0.180815 0.404010
v -2.454836 0.180815 0.455241
v -2.484819 0.180815 0.425177
v -2.495793 0.180815 -0.384021
v -2.413879 0.180815 -0.466157
v -2.442337 0.180815 -0.403922
v -2.484819 0.180815 -0.425089
v -2.454836 0.180815 -0.455153
v -2.269779 0.000000 0.466245
v -2.276174 0.000000 0.387695
v -2.495793 0.000000 0.000044
v -2.495793 0.180815 0.000044
v -2.428324 0.180815 0.000045
v -2.428324 0.000000 -0.001097
v -2.268907 0.000000 -0.387607
v -2.268552 0.000000 -0.466157
vn -0.0000 -1.0000 -0.0000
vn -0.0000 -0.0000 1.0000
vn -0.0000 1.0000 -0.0000
vn -0.0000 -0.0000 -1.0000
vn 0.7116 0.7026 -0.0000
vn 1.0000 -0.0000 -0.0000
vn 0.0001 0.0001 1.0000
vn 0.0003 0.0002 1.0000
vn 0.0004 0.0002 1.0000
vn -0.0034 -0.0012 -1.0000
vn -0.0021 -0.0015 -1.0000
vn -0.0007 -0.0007 -1.0000
vn 0.1584 0.9874 -0.0000
vn 0.3856 0.9227 -0.0000
vn 0.5913 0.8065 -0.0000
vn -0.2595 -0.0000 -0.9658
vn -0.7081 -0.0000 -0.7061
vn -0.9661 -0.0000 -0.2582
vn -0.2595 -0.0000 0.9658
vn -0.7081 -0.0000 0.7061
vn -0.9661 -0.0000 0.2582
vn -1.0000 -0.0000 -0.0000
vn -0.0038 -0.0003 -1.0000
vn 0.0005 -0.0000 1.0000
vt 0.000000 0.000000
s 0
usemtl Material.003
f 1/1/1 10/1/1 6/1/1 7/1/1
f 2/1/1 8/1/1 5/1/1 9/1/1
f 5/1/2 25/1/2 23/1/2 53/1/2
f 3/1/1 58/1/1 55/1/1 39/1/1
f 12/1/3 50/1/3 48/1/3
f 11/1/3 43/1/3 23/1/3 14/1/3
f 9/1/4 15/1/4 13/1/4 2/1/4
f 1/1/5 7/1/5 28/1/5 19/1/5
f 10/1/2 20/1/2 18/1/2 59/1/2
f 1/1/2 19/1/2 20/1/2 10/1/2
f 4/1/1 34/1/1 35/1/1
f 29/1/3 49/1/3 12/1/3 18/1/3
f 3/1/6 12/1/6 57/1/6 58/1/6
f 6/1/1 10/1/1 59/1/1 60/1/1
f 38/1/4 49/1/4 29/1/4 60/1/4
f 2/1/5 13/1/5 24/1/5 8/1/5
f 13/1/4 15/1/4 16/1/4
f 16/1/4 15/1/4 17/1/4
f 17/1/4 15/1/4 14/1/4
f 18/1/2 20/1/2 21/1/2
f 21/1/2 20/1/2 22/1/2
f 22/1/2 20/1/2 19/1/2
f 23/1/7 25/1/7 26/1/7
f 26/1/8 25/1/8 27/1/8
f 27/1/9 25/1/9 24/1/9
f 28/1/10 30/1/10 31/1/10
f 31/1/11 30/1/11 32/1/11
f 32/1/12 30/1/12 29/1/12
f 23/1/13 26/1/13 17/1/13 14/1/13
f 26/1/14 27/1/14 16/1/14 17/1/14
f 27/1/15 24/1/15 13/1/15 16/1/15
f 28/1/15 31/1/15 22/1/15 19/1/15
f 31/1/14 32/1/14 21/1/14 22/1/14
f 32/1/13 29/1/13 18/1/13 21/1/13
f 4/1/4 11/1/4 14/1/4 54/1/4
f 33/1/1 35/1/1 36/1/1
f 36/1/1 35/1/1 37/1/1
f 37/1/1 35/1/1 34/1/1
f 38/1/1 40/1/1 41/1/1
f 41/1/1 40/1/1 42/1/1
f 42/1/1 40/1/1 39/1/1
f 43/1/3 45/1/3 46/1/3
f 46/1/3 45/1/3 47/1/3
f 47/1/3 45/1/3 44/1/3
f 48/1/3 50/1/3 51/1/3
f 51/1/3 50/1/3 52/1/3
f 52/1/3 50/1/3 49/1/3
f 38/1/16 41/1/16 52/1/16 49/1/16
f 41/1/17 42/1/17 51/1/17 52/1/17
f 42/1/18 39/1/18 48/1/18 51/1/18
f 43/1/19 46/1/19 37/1/19 34/1/19
f 46/1/20 47/1/20 36/1/20 37/1/20
f 47/1/21 44/1/21 33/1/21 36/1/21
f 55/1/22 56/1/22 48/1/22 39/1/22
f 7/1/23 6/1/23 30/1/23 28/1/23
f 5/1/24 8/1/24 24/1/24 25/1/24
f 23/1/2 43/1/2 34/1/2 53/1/2
f 14/1/4 15/1/4 9/1/4 54/1/4
f 54/1/1 9/1/1 5/1/1 53/1/1
f 33/1/22 44/1/22 56/1/22 55/1/22
f 57/1/6 11/1/6 4/1/6 58/1/6
f 58/1/1 4/1/1 33/1/1 55/1/1
f 56/1/3 44/1/3 11/1/3 57/1/3
f 43/1/3 11/1/3 45/1/3
f 44/1/3 45/1/3 11/1/3
f 48/1/3 56/1/3 57/1/3 12/1/3
f 49/1/3 50/1/3 12/1/3
f 3/1/1 40/1/1 38/1/1
f 39/1/1 40/1/1 3/1/1
f 34/1/1 4/1/1 54/1/1 53/1/1
f 4/1/1 35/1/1 33/1/1
f 29/1/4 30/1/4 6/1/4 60/1/4
f 18/1/2 12/1/2 3/1/2 59/1/2
f 59/1/1 3/1/1 38/1/1 60/1/1
