# Blender 4.2.0
# www.blender.org
mtllib botao arena prot CAMPO LONGO COLISOR-colonly.mtl
o CAMPO_LONGO_COLISOR-colonly
v -2.000000 0.000000 0.593450
v -1.593450 0.000000 1.000000
v -1.593450 0.000000 -1.000000
v -2.000000 0.000000 -0.593450
v 1.593450 0.000000 1.000000
v 2.000000 0.000000 0.593450
v 2.000000 0.000000 -0.593450
v 1.593450 0.000000 -1.000000
v -2.000000 0.000000 0.389106
v -2.000000 0.000000 -0.389106
v 2.000000 0.000000 0.389106
v 2.000000 0.000000 -0.389106
v 2.433736 0.000000 0.388009
v 2.433736 0.000000 -0.388009
v -2.443661 0.000000 0.389106
v -2.443661 0.000000 -0.389106
v -2.000000 0.373220 0.593450
v -1.593450 0.373220 1.000000
v -1.593450 0.373220 -1.000000
v -2.000000 0.373220 -0.593450
v 1.593450 0.373220 1.000000
v 2.000000 0.373220 0.593450
v 2.000000 0.373220 -0.593450
v 1.593450 0.373220 -1.000000
v -2.000000 0.373220 0.389106
v -2.000000 0.373220 -0.389106
v 2.000000 0.373220 0.389106
v 2.000000 0.373220 -0.389106
v 2.433736 0.373220 0.388009
v 2.433736 0.373220 -0.388009
v -2.443661 0.373220 0.389106
v -2.443661 0.373220 -0.389106
v -1.721623 0.000000 1.309436
v -2.309437 0.000000 0.721623
v -2.309437 0.000000 -0.721623
v -1.721623 0.000000 -1.309436
v 1.721623 0.000000 -1.309436
v 2.309437 0.000000 -0.721623
v 2.309437 0.000000 0.721623
v 1.721623 0.000000 1.309436
v -2.236832 0.000000 -0.625938
v 2.237132 0.000000 -0.625639
v -2.236832 0.000000 0.625938
v 2.237132 0.000000 0.625639
v 2.670867 0.000000 -0.624542
v 2.670867 0.000000 0.624542
v -2.680494 0.000000 0.625938
v -2.680494 0.000000 -0.625938
v -1.721623 0.373220 1.309436
v -2.309437 0.373220 0.721623
v -2.309437 0.373220 -0.721623
v -1.721623 0.373220 -1.309436
v 1.721623 0.373220 -1.309436
v 2.309437 0.373220 -0.721623
v 2.309437 0.373220 0.721623
v 1.721623 0.373220 1.309436
v -2.236832 0.373220 -0.625938
v 2.237132 0.373220 -0.625639
v -2.236832 0.373220 0.625938
v 2.237132 0.373220 0.625639
v 2.670867 0.373220 -0.624542
v 2.670867 0.373220 0.624542
v -2.680494 0.373220 0.625938
v -2.680494 0.373220 -0.625938
vn 0.7071 -0.0000 0.7071
vn -1.0000 -0.0000 -0.0000
vn -0.7071 -0.0000 0.7071
vn -0.7071 -0.0000 -0.7071
vn -0.0025 -0.0000 1.0000
vn 1.0000 -0.0000 -0.0000
vn -0.0025 -0.0000 -1.0000
vn -0.0000 -0.0000 -1.0000
vn -0.0000 -0.0000 1.0000
vn 0.7071 -0.0000 -0.7071
vn 0.7987 -0.0000 -0.6017
vn 0.0025 -0.0000 -1.0000
vn -0.7966 -0.0000 0.6045
vn 0.0025 -0.0000 1.0000
vn 0.7987 -0.0000 0.6017
vn -0.7966 -0.0000 -0.6045
vn -0.0000 1.0000 -0.0000
vn -0.0000 -1.0000 -0.0000
vt 0.000000 0.000000
s 0
usemtl campo_longo
f 3/1/1 19/1/1 20/1/1 4/1/1
f 6/1/2 22/1/2 27/1/2 11/1/2
f 7/1/3 23/1/3 24/1/3 8/1/3
f 13/1/2 29/1/2 30/1/2 14/1/2
f 5/1/4 21/1/4 22/1/4 6/1/4
f 14/1/5 30/1/5 28/1/5 12/1/5
f 4/1/6 20/1/6 26/1/6 10/1/6
f 11/1/7 27/1/7 29/1/7 13/1/7
f 2/1/8 18/1/8 21/1/8 5/1/8
f 16/1/6 32/1/6 31/1/6 15/1/6
f 12/1/2 28/1/2 23/1/2 7/1/2
f 15/1/8 31/1/8 25/1/8 9/1/8
f 8/1/9 24/1/9 19/1/9 3/1/9
f 1/1/10 17/1/10 18/1/10 2/1/10
f 10/1/9 26/1/9 32/1/9 16/1/9
f 9/1/6 25/1/6 17/1/6 1/1/6
f 36/1/4 35/1/4 51/1/4 52/1/4
f 39/1/11 44/1/11 60/1/11 55/1/11
f 38/1/10 37/1/10 53/1/10 54/1/10
f 46/1/6 45/1/6 61/1/6 62/1/6
f 40/1/1 39/1/1 55/1/1 56/1/1
f 45/1/12 42/1/12 58/1/12 61/1/12
f 35/1/13 41/1/13 57/1/13 51/1/13
f 44/1/14 46/1/14 62/1/14 60/1/14
f 33/1/9 40/1/9 56/1/9 49/1/9
f 48/1/2 47/1/2 63/1/2 64/1/2
f 42/1/15 38/1/15 54/1/15 58/1/15
f 47/1/9 43/1/9 59/1/9 63/1/9
f 37/1/8 36/1/8 52/1/8 53/1/8
f 34/1/3 33/1/3 49/1/3 50/1/3
f 41/1/8 48/1/8 64/1/8 57/1/8
f 43/1/16 34/1/16 50/1/16 59/1/16
f 17/1/17 25/1/17 59/1/17 50/1/17
f 14/1/18 12/1/18 42/1/18 45/1/18
f 27/1/17 22/1/17 55/1/17 60/1/17
f 11/1/18 13/1/18 46/1/18 44/1/18
f 30/1/17 29/1/17 62/1/17 61/1/17
f 16/1/18 15/1/18 47/1/18 48/1/18
f 1/1/18 2/1/18 33/1/18 34/1/18
f 28/1/17 30/1/17 61/1/17 58/1/17
f 15/1/18 9/1/18 43/1/18 47/1/18
f 3/1/18 4/1/18 35/1/18 36/1/18
f 29/1/17 27/1/17 60/1/17 62/1/17
f 10/1/18 16/1/18 48/1/18 41/1/18
f 7/1/18 8/1/18 37/1/18 38/1/18
f 31/1/17 32/1/17 64/1/17 63/1/17
f 18/1/17 17/1/17 50/1/17 49/1/17
f 5/1/18 6/1/18 39/1/18 40/1/18
f 25/1/17 31/1/17 63/1/17 59/1/17
f 20/1/17 19/1/17 52/1/17 51/1/17
f 4/1/18 10/1/18 41/1/18 35/1/18
f 32/1/17 26/1/17 57/1/17 64/1/17
f 24/1/17 23/1/17 54/1/17 53/1/17
f 2/1/18 5/1/18 40/1/18 33/1/18
f 22/1/17 21/1/17 56/1/17 55/1/17
f 12/1/18 7/1/18 38/1/18 42/1/18
f 26/1/17 20/1/17 51/1/17 57/1/17
f 8/1/18 3/1/18 36/1/18 37/1/18
f 21/1/17 18/1/17 49/1/17 56/1/17
f 9/1/18 1/1/18 34/1/18 43/1/18
f 23/1/17 28/1/17 58/1/17 54/1/17
f 6/1/18 11/1/18 44/1/18 39/1/18
f 19/1/17 24/1/17 53/1/17 52/1/17
f 13/1/18 14/1/18 45/1/18 46/1/18
